ffmpeg started on 2025-12-30 at 19:42:43
Report written to "D:\Convert\FFMetrics\reports\ssim_report-6.txt"
Log level: 32
Command line:
ffmpeg -hide_banner -nostdin -i "F:\\\xc0\xed\xe8\xec\xe5\\\xce\xed\xe3\xee\xe8\xed\xe3\xe8\\!_37_\xc7\xe8\xec\xe0_2025\\JamClub\\\xc4\xee\xea\xf2\xee\xf0 \xd1\xf2\xee\xf3\xed\\\xd2\xc2-4\\JamClub_Dr_Stone_Science_Future_03_1080p_HEVC(41).mkv" -i "F:\\\xc0\xed\xe8\xec\xe5\\\xce\xed\xe3\xee\xe8\xed\xe3\xe8\\!_37_\xc7\xe8\xec\xe0_2025\\JamClub\\\xc4\xee\xea\xf2\xee\xf0 \xd1\xf2\xee\xf3\xed\\\xd2\xc2-4\\JamClub_Dr_Stone_Science_Future_03_1080p.mp4" -lavfi "[0:v]settb=AVTB,setpts=PTS-STARTPTS,format=pix_fmts=yuv420p10le,fps=24000/1001,scale=1920:1080:flags=bicubic[main];[1:v]settb=AVTB,setpts=PTS-STARTPTS,format=pix_fmts=yuv420p,fps=24000/1001,scale=1920:1080:flags=bicubic[ref];[main][ref]ssim=eof_action=endall:stats_file='D\\:/Convert/FFMetrics/logs/ssim_logfile-6.txt'" -f null -
Input #0, matroska,webm, from 'F:\Аниме\Онгоинги\!_37_Зима_2025\JamClub\Доктор Стоун\ТВ-4\JamClub_Dr_Stone_Science_Future_03_1080p_HEVC(41).mkv':
  Metadata:
    COMPATIBLE_BRANDS: mp42mp41
    MAJOR_BRAND     : mp42
    MINOR_VERSION   : 0
    ENCODER         : Lavf61.7.100
  Duration: 00:24:22.17, start: -0.021000, bitrate: 1806 kb/s
  Stream #0:0(eng): Video: hevc (Main 10), yuv420p10le(tv, unknown/bt709/bt709, progressive), 1920x1080 [SAR 1:1 DAR 16:9], 23.98 fps, 23.98 tbr, 1k tbn (default)
      Metadata:
        HANDLER_NAME    : Mainconcept Video Media Handler
        VENDOR_ID       : [0][0][0][0]
        ENCODER         : Lavc61.19.100 libx265
        BPS             : 1609131
        DURATION        : 00:24:22.127708333
        NUMBER_OF_FRAMES: 35056
        NUMBER_OF_BYTES : 294094355
        _STATISTICS_WRITING_APP: mkvpropedit v94.0 ('Initiate') 64-bit
        _STATISTICS_WRITING_DATE_UTC: 2025-12-30 15:09:40
        _STATISTICS_TAGS: BPS DURATION NUMBER_OF_FRAMES NUMBER_OF_BYTES
  Stream #0:1(eng): Audio: aac (LC), 48000 Hz, stereo, fltp (default)
      Metadata:
        HANDLER_NAME    : #Mainconcept MP4 Sound Media Handler
        VENDOR_ID       : [0][0][0][0]
        ENCODER         : Lavc61.19.100 aac
        BPS             : 193637
        DURATION        : 00:24:22.144000000
        NUMBER_OF_FRAMES: 68539
        NUMBER_OF_BYTES : 35390813
        _STATISTICS_WRITING_APP: mkvpropedit v94.0 ('Initiate') 64-bit
        _STATISTICS_WRITING_DATE_UTC: 2025-12-30 15:09:40
        _STATISTICS_TAGS: BPS DURATION NUMBER_OF_FRAMES NUMBER_OF_BYTES
Input #1, mov,mp4,m4a,3gp,3g2,mj2, from 'F:\Аниме\Онгоинги\!_37_Зима_2025\JamClub\Доктор Стоун\ТВ-4\JamClub_Dr_Stone_Science_Future_03_1080p.mp4':
  Metadata:
    major_brand     : mp42
    minor_version   : 0
    compatible_brands: mp42mp41
    creation_time   : 2025-02-16T13:45:21.000000Z
  Duration: 00:24:22.13, start: 0.000000, bitrate: 5181 kb/s
  Stream #1:0[0x1](eng): Video: h264 (Main) (avc1 / 0x31637661), yuv420p(progressive), 1920x1080 [SAR 1:1 DAR 16:9], 4861 kb/s, 23.98 fps, 23.98 tbr, 24k tbn (default)
      Metadata:
        creation_time   : 2025-02-16T13:45:21.000000Z
        handler_name    : Mainconcept Video Media Handler
        vendor_id       : [0][0][0][0]
        encoder         : AVC Coding
  Stream #1:1[0x2](eng): Audio: aac (LC) (mp4a / 0x6134706D), 48000 Hz, stereo, fltp, 317 kb/s (default)
      Metadata:
        creation_time   : 2025-02-16T13:45:21.000000Z
        handler_name    : #Mainconcept MP4 Sound Media Handler
        vendor_id       : [0][0][0][0]
Stream mapping:
  Stream #0:0 (hevc) -> settb:default
  Stream #1:0 (h264) -> settb:default
  ssim:default -> Stream #0:0 (wrapped_avframe)
  Stream #0:1 -> #0:1 (aac (native) -> pcm_s16le (native))
Output #0, null, to 'pipe:':
  Metadata:
    COMPATIBLE_BRANDS: mp42mp41
    MAJOR_BRAND     : mp42
    MINOR_VERSION   : 0
    encoder         : Lavf61.7.100
  Stream #0:0: Video: wrapped_avframe, yuv420p10le(tv, unknown/bt709/bt709, progressive), 1920x1080 [SAR 1:1 DAR 16:9], q=2-31, 200 kb/s, 23.98 fps, 23.98 tbn
      Metadata:
        encoder         : Lavc61.19.100 wrapped_avframe
  Stream #0:1(eng): Audio: pcm_s16le, 48000 Hz, stereo, s16, 1536 kb/s (default)
      Metadata:
        HANDLER_NAME    : #Mainconcept MP4 Sound Media Handler
        VENDOR_ID       : [0][0][0][0]
        _STATISTICS_TAGS: BPS DURATION NUMBER_OF_FRAMES NUMBER_OF_BYTES
        BPS             : 193637
        DURATION        : 00:24:22.144000000
        NUMBER_OF_FRAMES: 68539
        NUMBER_OF_BYTES : 35390813
        _STATISTICS_WRITING_APP: mkvpropedit v94.0 ('Initiate') 64-bit
        _STATISTICS_WRITING_DATE_UTC: 2025-12-30 15:09:40
        encoder         : Lavc61.19.100 pcm_s16le
frame=  126 fps=0.0 q=-0.0 size=N/A time=00:00:05.25 bitrate=N/A speed=9.99x    frame=  293 fps=283 q=-0.0 size=N/A time=00:00:12.22 bitrate=N/A speed=11.8x    frame=  513 fps=331 q=-0.0 size=N/A time=00:00:21.39 bitrate=N/A speed=13.8x    frame=  790 fps=382 q=-0.0 size=N/A time=00:00:32.94 bitrate=N/A speed=15.9x    frame= 1046 fps=405 q=-0.0 size=N/A time=00:00:43.62 bitrate=N/A speed=16.9x    frame= 1288 fps=417 q=-0.0 size=N/A time=00:00:53.72 bitrate=N/A speed=17.4x    frame= 1546 fps=428 q=-0.0 size=N/A time=00:01:04.48 bitrate=N/A speed=17.9x    frame= 1812 fps=440 q=-0.0 size=N/A time=00:01:15.57 bitrate=N/A speed=18.3x    frame= 2107 fps=453 q=-0.0 size=N/A time=00:01:27.87 bitrate=N/A speed=18.9x    frame= 2377 fps=461 q=-0.0 size=N/A time=00:01:39.14 bitrate=N/A speed=19.2x    frame= 2648 fps=466 q=-0.0 size=N/A time=00:01:50.44 bitrate=N/A speed=19.4x    frame= 2920 fps=472 q=-0.0 size=N/A time=00:02:01.78 bitrate=N/A speed=19.7x    frame= 3167 fps=472 q=-0.0 size=N/A time=00:02:12.09 bitrate=N/A speed=19.7x    frame= 3422 fps=474 q=-0.0 size=N/A time=00:02:22.72 bitrate=N/A speed=19.8x    frame= 3652 fps=472 q=-0.0 size=N/A time=00:02:32.31 bitrate=N/A speed=19.7x    frame= 3891 fps=472 q=-0.0 size=N/A time=00:02:42.28 bitrate=N/A speed=19.7x    frame= 4101 fps=467 q=-0.0 size=N/A time=00:02:51.04 bitrate=N/A speed=19.5x    frame= 4312 fps=464 q=-0.0 size=N/A time=00:02:59.84 bitrate=N/A speed=19.4x    frame= 4519 fps=461 q=-0.0 size=N/A time=00:03:08.47 bitrate=N/A speed=19.2x    frame= 4772 fps=462 q=-0.0 size=N/A time=00:03:19.03 bitrate=N/A speed=19.3x    frame= 5004 fps=462 q=-0.0 size=N/A time=00:03:28.70 bitrate=N/A speed=19.3x    frame= 5240 fps=462 q=-0.0 size=N/A time=00:03:38.55 bitrate=N/A speed=19.3x    frame= 5463 fps=461 q=-0.0 size=N/A time=00:03:47.85 bitrate=N/A speed=19.2x    frame= 5727 fps=462 q=-0.0 size=N/A time=00:03:58.86 bitrate=N/A speed=19.3x    frame= 6006 fps=466 q=-0.0 size=N/A time=00:04:10.50 bitrate=N/A speed=19.4x    frame= 6260 fps=467 q=-0.0 size=N/A time=00:04:21.09 bitrate=N/A speed=19.5x    frame= 6514 fps=468 q=-0.0 size=N/A time=00:04:31.68 bitrate=N/A speed=19.5x    frame= 6737 fps=466 q=-0.0 size=N/A time=00:04:40.98 bitrate=N/A speed=19.5x    frame= 6889 fps=461 q=-0.0 size=N/A time=00:04:47.32 bitrate=N/A speed=19.2x    frame= 7038 fps=455 q=-0.0 size=N/A time=00:04:53.54 bitrate=N/A speed=  19x    frame= 7185 fps=449 q=-0.0 size=N/A time=00:04:59.67 bitrate=N/A speed=18.7x    frame= 7347 fps=445 q=-0.0 size=N/A time=00:05:06.43 bitrate=N/A speed=18.6x    frame= 7533 fps=443 q=-0.0 size=N/A time=00:05:14.18 bitrate=N/A speed=18.5x    frame= 7690 fps=439 q=-0.0 size=N/A time=00:05:20.73 bitrate=N/A speed=18.3x    frame= 7824 fps=434 q=-0.0 size=N/A time=00:05:26.32 bitrate=N/A speed=18.1x    frame= 7977 fps=429 q=-0.0 size=N/A time=00:05:32.70 bitrate=N/A speed=17.9x    frame= 8126 fps=426 q=-0.0 size=N/A time=00:05:38.92 bitrate=N/A speed=17.8x    frame= 8263 fps=422 q=-0.0 size=N/A time=00:05:44.63 bitrate=N/A speed=17.6x    frame= 8474 fps=421 q=-0.0 size=N/A time=00:05:53.43 bitrate=N/A speed=17.6x    frame= 8644 fps=419 q=-0.0 size=N/A time=00:06:00.52 bitrate=N/A speed=17.5x    frame= 8850 fps=419 q=-0.0 size=N/A time=00:06:09.11 bitrate=N/A speed=17.5x    frame= 9074 fps=419 q=-0.0 size=N/A time=00:06:18.46 bitrate=N/A speed=17.5x    frame= 9264 fps=418 q=-0.0 size=N/A time=00:06:26.38 bitrate=N/A speed=17.4x    frame= 9482 fps=418 q=-0.0 size=N/A time=00:06:35.47 bitrate=N/A speed=17.4x    frame= 9718 fps=419 q=-0.0 size=N/A time=00:06:45.32 bitrate=N/A speed=17.5x    frame= 9957 fps=420 q=-0.0 size=N/A time=00:06:55.28 bitrate=N/A speed=17.5x    frame=10145 fps=418 q=-0.0 size=N/A time=00:07:03.13 bitrate=N/A speed=17.5x    frame=10375 fps=419 q=-0.0 size=N/A time=00:07:12.72 bitrate=N/A speed=17.5x    frame=10604 fps=420 q=-0.0 size=N/A time=00:07:22.27 bitrate=N/A speed=17.5x    frame=10825 fps=420 q=-0.0 size=N/A time=00:07:31.49 bitrate=N/A speed=17.5x    frame=11051 fps=420 q=-0.0 size=N/A time=00:07:40.91 bitrate=N/A speed=17.5x    frame=11264 fps=420 q=-0.0 size=N/A time=00:07:49.80 bitrate=N/A speed=17.5x    frame=11473 fps=420 q=-0.0 size=N/A time=00:07:58.51 bitrate=N/A speed=17.5x    frame=11653 fps=418 q=-0.0 size=N/A time=00:08:06.02 bitrate=N/A speed=17.4x    frame=11868 fps=418 q=-0.0 size=N/A time=00:08:14.99 bitrate=N/A speed=17.5x    frame=12064 fps=418 q=-0.0 size=N/A time=00:08:23.16 bitrate=N/A speed=17.4x    frame=12299 fps=418 q=-0.0 size=N/A time=00:08:32.97 bitrate=N/A speed=17.4x    frame=12543 fps=419 q=-0.0 size=N/A time=00:08:43.14 bitrate=N/A speed=17.5x    frame=12791 fps=420 q=-0.0 size=N/A time=00:08:53.49 bitrate=N/A speed=17.5x    frame=13075 fps=422 q=-0.0 size=N/A time=00:09:05.33 bitrate=N/A speed=17.6x    frame=13281 fps=422 q=-0.0 size=N/A time=00:09:13.92 bitrate=N/A speed=17.6x    frame=13485 fps=422 q=-0.0 size=N/A time=00:09:22.43 bitrate=N/A speed=17.6x    frame=13617 fps=419 q=-0.0 size=N/A time=00:09:27.94 bitrate=N/A speed=17.5x    frame=13834 fps=419 q=-0.0 size=N/A time=00:09:36.99 bitrate=N/A speed=17.5x    frame=14058 fps=419 q=-0.0 size=N/A time=00:09:46.33 bitrate=N/A speed=17.5x    frame=14226 fps=418 q=-0.0 size=N/A time=00:09:53.34 bitrate=N/A speed=17.4x    frame=14407 fps=417 q=-0.0 size=N/A time=00:10:00.89 bitrate=N/A speed=17.4x    frame=14586 fps=416 q=-0.0 size=N/A time=00:10:08.35 bitrate=N/A speed=17.3x    frame=14772 fps=415 q=-0.0 size=N/A time=00:10:16.11 bitrate=N/A speed=17.3x    frame=15017 fps=416 q=-0.0 size=N/A time=00:10:26.33 bitrate=N/A speed=17.4x    frame=15185 fps=415 q=-0.0 size=N/A time=00:10:33.34 bitrate=N/A speed=17.3x    frame=15396 fps=415 q=-0.0 size=N/A time=00:10:42.14 bitrate=N/A speed=17.3x    frame=15598 fps=414 q=-0.0 size=N/A time=00:10:50.56 bitrate=N/A speed=17.3x    frame=15804 fps=414 q=-0.0 size=N/A time=00:10:59.15 bitrate=N/A speed=17.3x    frame=16022 fps=414 q=-0.0 size=N/A time=00:11:08.25 bitrate=N/A speed=17.3x    frame=16244 fps=415 q=-0.0 size=N/A time=00:11:17.51 bitrate=N/A speed=17.3x    frame=16466 fps=415 q=-0.0 size=N/A time=00:11:26.76 bitrate=N/A speed=17.3x    frame=16648 fps=414 q=-0.0 size=N/A time=00:11:34.36 bitrate=N/A speed=17.3x    frame=16824 fps=413 q=-0.0 size=N/A time=00:11:41.70 bitrate=N/A speed=17.2x    frame=17022 fps=413 q=-0.0 size=N/A time=00:11:49.95 bitrate=N/A speed=17.2x    frame=17233 fps=413 q=-0.0 size=N/A time=00:11:58.75 bitrate=N/A speed=17.2x    frame=17451 fps=413 q=-0.0 size=N/A time=00:12:07.85 bitrate=N/A speed=17.2x    frame=17692 fps=413 q=-0.0 size=N/A time=00:12:17.90 bitrate=N/A speed=17.2x    frame=17930 fps=414 q=-0.0 size=N/A time=00:12:27.83 bitrate=N/A speed=17.3x    frame=18161 fps=414 q=-0.0 size=N/A time=00:12:37.46 bitrate=N/A speed=17.3x    frame=18415 fps=415 q=-0.0 size=N/A time=00:12:48.05 bitrate=N/A speed=17.3x    frame=18653 fps=416 q=-0.0 size=N/A time=00:12:57.98 bitrate=N/A speed=17.3x    frame=18866 fps=416 q=-0.0 size=N/A time=00:13:06.86 bitrate=N/A speed=17.3x    frame=19090 fps=416 q=-0.0 size=N/A time=00:13:16.21 bitrate=N/A speed=17.4x    frame=19337 fps=417 q=-0.0 size=N/A time=00:13:26.51 bitrate=N/A speed=17.4x    frame=19571 fps=417 q=-0.0 size=N/A time=00:13:36.27 bitrate=N/A speed=17.4x    frame=19810 fps=417 q=-0.0 size=N/A time=00:13:46.24 bitrate=N/A speed=17.4x    frame=20062 fps=418 q=-0.0 size=N/A time=00:13:56.75 bitrate=N/A speed=17.4x    frame=20330 fps=419 q=-0.0 size=N/A time=00:14:07.93 bitrate=N/A speed=17.5x    frame=20601 fps=420 q=-0.0 size=N/A time=00:14:19.23 bitrate=N/A speed=17.5x    frame=20776 fps=420 q=-0.0 size=N/A time=00:14:26.53 bitrate=N/A speed=17.5x    frame=20958 fps=419 q=-0.0 size=N/A time=00:14:34.12 bitrate=N/A speed=17.5x    frame=21166 fps=419 q=-0.0 size=N/A time=00:14:42.79 bitrate=N/A speed=17.5x    frame=21387 fps=419 q=-0.0 size=N/A time=00:14:52.01 bitrate=N/A speed=17.5x    frame=21575 fps=418 q=-0.0 size=N/A time=00:14:59.85 bitrate=N/A speed=17.4x    frame=21787 fps=418 q=-0.0 size=N/A time=00:15:08.69 bitrate=N/A speed=17.4x    frame=22019 fps=419 q=-0.0 size=N/A time=00:15:18.37 bitrate=N/A speed=17.5x    frame=22257 fps=419 q=-0.0 size=N/A time=00:15:28.30 bitrate=N/A speed=17.5x    frame=22543 fps=420 q=-0.0 size=N/A time=00:15:40.23 bitrate=N/A speed=17.5x    frame=22802 fps=421 q=-0.0 size=N/A time=00:15:51.03 bitrate=N/A speed=17.6x    frame=23029 fps=421 q=-0.0 size=N/A time=00:16:00.50 bitrate=N/A speed=17.6x    frame=23279 fps=422 q=-0.0 size=N/A time=00:16:10.92 bitrate=N/A speed=17.6x    frame=23518 fps=422 q=-0.0 size=N/A time=00:16:20.89 bitrate=N/A speed=17.6x    frame=23751 fps=422 q=-0.0 size=N/A time=00:16:30.61 bitrate=N/A speed=17.6x    frame=23978 fps=423 q=-0.0 size=N/A time=00:16:40.08 bitrate=N/A speed=17.6x    frame=24221 fps=423 q=-0.0 size=N/A time=00:16:50.21 bitrate=N/A speed=17.6x    frame=24486 fps=424 q=-0.0 size=N/A time=00:17:01.27 bitrate=N/A speed=17.7x    frame=24732 fps=424 q=-0.0 size=N/A time=00:17:11.53 bitrate=N/A speed=17.7x    frame=24998 fps=425 q=-0.0 size=N/A time=00:17:22.62 bitrate=N/A speed=17.7x    frame=25264 fps=426 q=-0.0 size=N/A time=00:17:33.71 bitrate=N/A speed=17.8x    frame=25523 fps=427 q=-0.0 size=N/A time=00:17:44.52 bitrate=N/A speed=17.8x    frame=25771 fps=427 q=-0.0 size=N/A time=00:17:54.86 bitrate=N/A speed=17.8x    frame=26045 fps=428 q=-0.0 size=N/A time=00:18:06.29 bitrate=N/A speed=17.8x    frame=26307 fps=429 q=-0.0 size=N/A time=00:18:17.22 bitrate=N/A speed=17.9x    frame=26582 fps=429 q=-0.0 size=N/A time=00:18:28.69 bitrate=N/A speed=17.9x    frame=26858 fps=430 q=-0.0 size=N/A time=00:18:40.20 bitrate=N/A speed=17.9x    frame=27109 fps=431 q=-0.0 size=N/A time=00:18:50.67 bitrate=N/A speed=  18x    frame=27372 fps=431 q=-0.0 size=N/A time=00:19:01.64 bitrate=N/A speed=  18x    frame=27626 fps=432 q=-0.0 size=N/A time=00:19:12.23 bitrate=N/A speed=  18x    frame=27868 fps=432 q=-0.0 size=N/A time=00:19:22.32 bitrate=N/A speed=  18x    frame=28087 fps=432 q=-0.0 size=N/A time=00:19:31.46 bitrate=N/A speed=  18x    frame=28329 fps=433 q=-0.0 size=N/A time=00:19:41.55 bitrate=N/A speed=  18x    frame=28566 fps=433 q=-0.0 size=N/A time=00:19:51.44 bitrate=N/A speed=  18x    frame=28803 fps=433 q=-0.0 size=N/A time=00:20:01.32 bitrate=N/A speed=18.1x    frame=29060 fps=433 q=-0.0 size=N/A time=00:20:12.04 bitrate=N/A speed=18.1x    frame=29292 fps=434 q=-0.0 size=N/A time=00:20:21.72 bitrate=N/A speed=18.1x    frame=29546 fps=434 q=-0.0 size=N/A time=00:20:32.31 bitrate=N/A speed=18.1x    frame=29767 fps=434 q=-0.0 size=N/A time=00:20:41.53 bitrate=N/A speed=18.1x    frame=29968 fps=434 q=-0.0 size=N/A time=00:20:49.91 bitrate=N/A speed=18.1x    frame=30148 fps=433 q=-0.0 size=N/A time=00:20:57.42 bitrate=N/A speed=18.1x    frame=30346 fps=433 q=-0.0 size=N/A time=00:21:05.68 bitrate=N/A speed=  18x    frame=30550 fps=432 q=-0.0 size=N/A time=00:21:14.18 bitrate=N/A speed=  18x    frame=30737 fps=432 q=-0.0 size=N/A time=00:21:21.98 bitrate=N/A speed=  18x    frame=30966 fps=432 q=-0.0 size=N/A time=00:21:31.54 bitrate=N/A speed=  18x    frame=31238 fps=433 q=-0.0 size=N/A time=00:21:42.88 bitrate=N/A speed=  18x    frame=31468 fps=433 q=-0.0 size=N/A time=00:21:52.47 bitrate=N/A speed=  18x    frame=31710 fps=433 q=-0.0 size=N/A time=00:22:02.57 bitrate=N/A speed=18.1x    frame=31991 fps=434 q=-0.0 size=N/A time=00:22:14.29 bitrate=N/A speed=18.1x    frame=32273 fps=434 q=-0.0 size=N/A time=00:22:26.05 bitrate=N/A speed=18.1x    frame=32516 fps=435 q=-0.0 size=N/A time=00:22:36.18 bitrate=N/A speed=18.1x    frame=32784 fps=435 q=-0.0 size=N/A time=00:22:47.36 bitrate=N/A speed=18.2x    frame=33029 fps=435 q=-0.0 size=N/A time=00:22:57.58 bitrate=N/A speed=18.2x    frame=33246 fps=435 q=-0.0 size=N/A time=00:23:06.63 bitrate=N/A speed=18.2x    frame=33457 fps=435 q=-0.0 size=N/A time=00:23:15.43 bitrate=N/A speed=18.2x    frame=33678 fps=435 q=-0.0 size=N/A time=00:23:24.65 bitrate=N/A speed=18.1x    frame=33897 fps=435 q=-0.0 size=N/A time=00:23:33.78 bitrate=N/A speed=18.1x    frame=34109 fps=435 q=-0.0 size=N/A time=00:23:42.62 bitrate=N/A speed=18.1x    frame=34346 fps=435 q=-0.0 size=N/A time=00:23:52.51 bitrate=N/A speed=18.1x    frame=34487 fps=434 q=-0.0 size=N/A time=00:23:58.39 bitrate=N/A speed=18.1x    frame=34693 fps=434 q=-0.0 size=N/A time=00:24:06.98 bitrate=N/A speed=18.1x    frame=34920 fps=434 q=-0.0 size=N/A time=00:24:16.45 bitrate=N/A speed=18.1x    [Parsed_ssim_10 @ 00000166ddd8c400] SSIM Y:0.993337 (21.762995) U:0.993799 (22.075538) V:0.993735 (22.030653) All:0.993480 (21.857540)
[out#0/null @ 00000166dad5fe40] video:15063KiB audio:274156KiB subtitle:0KiB other streams:0KiB global headers:0KiB muxing overhead: unknown
frame=35056 fps=434 q=-0.0 Lsize=N/A time=00:24:22.12 bitrate=N/A speed=18.1x    
